# xmcd CD database file
#
# Track frame offsets:
#	150
#	17389
#	32600
#	51730
#	73249
#	91295
#	108226
#	125027
#	145598
#	163678
#	183647
#	204826
#	225621
#	247991
#	264642
#
# Disc length: 3808 seconds
#
# Revision: 10
# Processed by: cddbd v1.5.2PL0 Copyright (c) Steve Scherf et al.
# Submitted via: CDex 1.70beta2
#
DISCID=cf0ede0f
DTITLE=Martyn Joseph - Thunder And Rainbows (The Best We Could Find)
DYEAR=2000
DGENRE=Folk
TTITLE0=Thunder And Rainbows
TTITLE1=I Will Follow
TTITLE2=Contradictions
TTITLE3=An Aching And A Longing
TTITLE4=Working Mother
TTITLE5=Change Your World
TTITLE6=I Will Be Waiting
TTITLE7=Please Sir
TTITLE8=Gift To Me
TTITLE9=Lets Talk About It In The Morning
TTITLE10=Dolphins Make Me Cry
TTITLE11=Between The Raindrops
TTITLE12=Cardiff Bay
TTITLE13=Precious 
TTITLE14=Carried In Sunlight
EXTD=YEAR: 2000
EXTT0=
EXTT1=
EXTT2=
EXTT3=
EXTT4=
EXTT5=
EXTT6=
EXTT7=
EXTT8=
EXTT9=
EXTT10=
EXTT11=
EXTT12=
EXTT13=
EXTT14=
PLAYORDER=
